<?xml version="1.0" encoding="UTF-8"?>
<svg width="306px" height="380px" viewBox="0 0 306 380" version="1.1" xmlns="http://www.w3.org/2000/svg" xmlns:xlink="http://www.w3.org/1999/xlink">
    <title>Illustration</title>
    <g id="Page-1" stroke="none" stroke-width="1" fill="none" fill-rule="evenodd">
        <g id="Workspace" transform="translate(-238.000000, -107.000000)">
            <g id="Illustration" transform="translate(238.000000, 107.000000)">
                <polygon id="Shape" fill="#E7F1F7" fill-rule="nonzero" points="7.18309859 247.68 193.225352 355.68 300.253521 293.76 117.084507 189.36"></polygon>
                <path d="M21.6211268,190.944 L11.3492958,246.744 C10.8464789,248.328 7.75774648,248.832 7.03943662,247.968 L8.04507042,247.824 C7.39859155,247.32 7.03943662,246.528 7.18309859,245.736 L17.5985915,189 L21.6211268,190.944 Z" id="Shape" fill="#613C00" fill-rule="nonzero"></path>
                <path d="M20.256338,190.944 L9.98450704,246.744 C9.6971831,248.184 8.04507042,248.832 6.89577465,247.968 L6.89577465,247.968 C6.1056338,247.392 5.67464789,246.384 5.89014085,245.376 L16.2338028,188.928 L20.256338,190.944 Z" id="Shape" fill="#9D6548" fill-rule="nonzero"></path>
                <path d="M192.36338,290.016 L192.36338,354.096 C192.36338,355.248 193.871831,356.256 195.092958,355.896 L194.590141,355.608 C195.595775,355.176 196.314085,354.168 196.314085,353.016 L196.314085,290.088 L192.36338,290.088 L192.36338,290.016 Z" id="Shape" fill="#613C00" fill-rule="nonzero"></path>
                <path d="M193.225352,290.304 L193.225352,354.384 C193.225352,355.536 194.374648,356.328 195.452113,355.824 L195.452113,355.824 C196.457746,355.392 197.176056,354.384 197.176056,353.232 L197.176056,290.304 L193.225352,290.304 Z" id="Shape" fill="#9D6548" fill-rule="nonzero"></path>
                <path d="M286.892958,236.088 L297.23662,292.968 C297.452113,294.336 299.46338,294.264 300.253521,293.76 L300.253521,293.04 C301.330986,292.32 300.828169,291.744 300.612676,290.448 L290.7,234 L286.892958,236.088 Z" id="Shape" fill="#613C00" fill-rule="nonzero"></path>
                <path d="M287.970423,236.088 L298.314085,292.968 C298.457746,293.832 299.46338,294.264 300.18169,293.76 L300.18169,293.76 C301.259155,293.04 301.833803,291.816 301.61831,290.52 L291.705634,234.072 L287.970423,236.088 Z" id="Shape" fill="#9D6548" fill-rule="nonzero"></path>
                <path d="M0.0718309859,173.232 L0.0718309859,179.352 C0.0718309859,179.352 -0.0718309859,180.36 1.07746479,180.864 L190.783099,290.232 C190.783099,290.232 194.51831,292.176 197.894366,290.232 C201.270423,288.288 201.270423,288.288 201.270423,288.288 L302.839437,229.464 C302.839437,229.464 305.353521,227.952 305.640845,224.568 C305.928169,221.184 305.569014,217.944 305.569014,217.944 L0.0718309859,173.232 Z" id="Shape" fill="#DBA978" fill-rule="nonzero"></path>
                <path d="M1.29295775,175.032 C1.29295775,175.032 -1.72394366,173.16 1.72394366,170.64 C5.1,168.12 104.514085,110.952 110.404225,107.568 C110.619718,107.424 110.907042,107.28 111.194366,107.208 C112.487324,106.704 116.007042,105.696 119.526761,107.784 L302.623944,213.912 C303.198592,214.2 303.701408,214.632 304.060563,215.136 C305.209859,216.504 306.71831,219.312 303.916901,222.696 C303.485915,223.2 302.983099,223.632 302.480282,223.92 L199.833803,283.464 C199.833803,283.464 194.230986,286.992 188.987324,283.464 L1.29295775,175.032 Z" id="Shape" fill="#FFDAA4" fill-rule="nonzero"></path>
                <path d="M180.008451,208.584 C180.008451,208.584 181.229577,211.32 179.649296,213.192 C178.571831,214.488 135.976056,240.552 134.395775,238.392 C132.815493,236.232 149.911268,226.44 149.911268,226.44 L180.008451,208.584 Z" id="Shape" fill="#95CDFF" fill-rule="nonzero"></path>
                <path d="M67.0183099,199.008 C67.0183099,199.008 65.7971831,197.928 67.0183099,196.416 C68.2394366,194.904 69.6760563,193.824 70.3225352,193.392 C70.8971831,193.032 109.829577,170.352 109.829577,170.352 C109.829577,170.352 111.840845,169.056 114.857746,170.352 C117.946479,171.648 179.433803,207.936 179.433803,207.936 C179.433803,207.936 181.588732,209.52 178.428169,211.608 C174.046479,214.56 138.274648,235.368 138.274648,235.368 C138.274648,235.368 136.26338,236.232 135.473239,238.176 C135.473239,238.176 135.185915,238.896 134.395775,238.392 C133.749296,237.96 67.0183099,199.008 67.0183099,199.008 Z" id="Shape" fill="#DBF0FF" fill-rule="nonzero"></path>
                <g id="Group" transform="translate(79.732394, 173.520000)" fill="#95CDFF" fill-rule="nonzero">
                    <polygon id="Shape" points="34.7661972 25.848 34.7661972 25.128 27.6549296 21.744 23.2732394 23.616 23.2732394 24.336 30.384507 28.44"></polygon>
                    <polygon id="Shape" points="43.0985915 30.744 43.0985915 30.024 35.628169 26.424 31.2464789 28.224 31.2464789 28.944 38.7169014 33.264"></polygon>
                    <polygon id="Shape" points="58.4704225 39.672 58.4704225 38.952 52.0774648 35.928 47.6957746 37.728 47.6957746 38.448 54.0887324 42.192"></polygon>
                    <polygon id="Shape" points="51.143662 35.424 51.143662 34.704 43.9605634 31.248 39.5788732 33.048 39.5788732 33.768 46.8338028 37.944"></polygon>
                    <polygon id="Shape" points="65.4380282 35.64 65.4380282 34.92 58.9732394 31.896 54.4478873 33.84 54.4478873 34.56 60.9126761 38.304"></polygon>
                    <polygon id="Shape" points="72.5492958 39.816 72.5492958 39.096 66.6591549 36.36 62.1338028 38.304 62.1338028 39.024 68.0957746 42.48"></polygon>
                    <polygon id="Shape" points="74.5605634 30.312 79.0140845 27.72 79.0140845 27 72.5492958 24.048 68.1676056 25.92 68.1676056 26.64"></polygon>
                    <polygon id="Shape" points="81.671831 34.488 86.1971831 31.824 86.1971831 31.104 80.2352113 28.44 75.7816901 30.312 75.7816901 31.032"></polygon>
                    <polygon id="Shape" points="79.3014085 35.856 79.3014085 35.136 73.3394366 32.472 69.0295775 34.272 69.0295775 34.992 74.9915493 38.376"></polygon>
                    <polygon id="Shape" points="72.1183099 31.752 72.1183099 31.032 65.7253521 28.008 61.415493 29.808 61.415493 30.528 67.8084507 34.272"></polygon>
                    <polygon id="Shape" points="49.9225352 26.64 49.9225352 25.92 42.5957746 22.392 38.0704225 24.264 38.0704225 24.984 45.4690141 29.304"></polygon>
                    <polygon id="Shape" points="67.0901408 25.992 71.4 23.4 71.4 22.68 64.3605634 19.44 60.0507042 21.168 60.0507042 21.888"></polygon>
                    <polygon id="Shape" points="53.2985915 25.848 60.4098592 29.952 64.7197183 27.432 64.7197183 26.712 57.6802817 23.328 53.2985915 25.128"></polygon>
                    <polygon id="Shape" points="44.9661972 21.024 52.3647887 25.272 56.6028169 22.68 56.6028169 21.96 49.3478873 18.504 44.9661972 20.304"></polygon>
                    <polygon id="Shape" points="30.0971831 20.376 37.1366197 24.48 41.5901408 21.816 41.5901408 21.096 34.6225352 17.784 30.0971831 19.656"></polygon>
                    <polygon id="Shape" points="22.6267606 16.056 28.8760563 19.656 33.4014085 17.064 33.4014085 16.344 27.1521127 13.392 22.6267606 15.336"></polygon>
                    <polygon id="Shape" points="36.9929577 16.344 44.0323944 20.448 48.2704225 17.856 48.2704225 17.136 41.3028169 13.824 36.9929577 15.624"></polygon>
                    <polygon id="Shape" points="15.8028169 19.944 22.0521127 23.616 26.4338028 21.024 26.4338028 20.304 20.184507 17.424 15.8028169 19.224"></polygon>
                    <polygon id="Shape" points="58.0394366 31.32 58.0394366 30.6 50.928169 27.216 46.4028169 29.088 46.4028169 29.808 53.5140845 33.984"></polygon>
                    <polygon id="Shape" points="76.2126761 39.096 83.1084507 43.128 87.4183099 40.608 87.4183099 39.888 80.5225352 36.576 76.2126761 38.376"></polygon>
                    <polygon id="Shape" points="69.2450704 43.128 76.1408451 47.16 80.6661972 44.496 80.6661972 43.776 73.7704225 40.536 69.2450704 42.408"></polygon>
                    <polygon id="Shape" points="62.4929577 47.088 69.3887324 51.048 73.7704225 48.528 73.7704225 47.808 66.8746479 44.568 62.4929577 46.368"></polygon>
                    <polygon id="Shape" points="65.6535211 43.848 65.6535211 43.128 59.7633803 40.392 55.3816901 42.264 55.3816901 42.984 61.343662 46.44"></polygon>
                    <polygon id="Shape" points="39.0760563 4.968 39.0760563 4.248 31.1746479 0.432 27.1521127 2.088 27.1521127 2.808 35.0535211 7.344"></polygon>
                    <polygon id="Shape" points="55.6690141 51.048 62.4929577 55.08 66.9464789 52.488 66.9464789 51.768 60.1225352 48.528 55.6690141 50.328"></polygon>
                    <polygon id="Shape" points="4.38169014 16.128 0.215492958 17.784 0.215492958 18.504 8.04507042 23.112 12.2112676 20.664 12.2112676 19.944"></polygon>
                    <polygon id="Shape" points="87.4183099 32.544 82.8929577 34.488 82.8929577 35.208 89.7887324 39.168 94.3859155 36.504 94.3859155 35.784"></polygon>
                    <polygon id="Shape" points="52.9394366 44.352 48.5577465 46.224 48.5577465 46.944 54.5197183 50.4 58.9014085 47.808 58.9014085 47.088"></polygon>
                    <polygon id="Shape" points="13.4323944 21.384 9.1943662 23.112 9.1943662 23.832 15.371831 27.432 19.6098592 24.984 19.6098592 24.264"></polygon>
                    <polygon id="Shape" points="42.5957746 11.736 46.7619718 9.36 46.7619718 8.64 40.3690141 5.688 36.2746479 7.344 36.2746479 8.064"></polygon>
                    <polygon id="Shape" points="29.5225352 12.024 35.843662 15.696 40.1535211 13.176 40.1535211 12.456 33.9042254 9.504 29.5225352 11.304"></polygon>
                    <polygon id="Shape" points="32.6112676 8.784 32.6112676 8.064 24.7098592 4.176 20.4 5.976 20.4 6.696 28.3014085 11.304"></polygon>
                    <polygon id="Shape" points="20.9028169 25.704 16.6647887 27.504 16.6647887 28.224 47.3366197 46.152 51.7183099 43.632 51.7183099 42.912"></polygon>
                    <polygon id="Shape" points="50.7126761 16.488 54.8788732 13.968 54.8788732 13.248 47.9112676 10.008 43.7450704 11.736 43.7450704 12.456"></polygon>
                    <polygon id="Shape" points="58.9732394 21.312 63.2830986 18.792 63.2830986 18.072 56.028169 14.616 51.7183099 16.344 51.7183099 17.064"></polygon>
                    <polygon id="Shape" points="25.9309859 12.672 25.9309859 11.952 18.0295775 8.136 13.5042254 10.008 13.5042254 10.728 21.4056338 15.336"></polygon>
                    <polygon id="Shape" points="19.0352113 16.704 19.0352113 15.984 11.1338028 12.168 6.75211268 13.968 6.75211268 14.688 14.6535211 19.296"></polygon>
                </g>
                <g id="Group" transform="translate(79.732394, 172.800000)" fill="#FFFFFF" fill-rule="nonzero">
                    <polygon id="Shape" points="34.7661972 25.848 27.6549296 21.744 23.2732394 24.336 30.384507 28.44"></polygon>
                    <polygon id="Shape" points="43.0985915 30.744 35.628169 26.424 31.2464789 28.944 38.7169014 33.264"></polygon>
                    <polygon id="Shape" points="58.4704225 39.672 52.0774648 35.928 47.6957746 38.448 54.0887324 42.192"></polygon>
                    <polygon id="Shape" points="51.143662 35.424 43.9605634 31.248 39.5788732 33.768 46.8338028 37.944"></polygon>
                    <polygon id="Shape" points="65.4380282 35.64 58.9732394 31.896 54.4478873 34.56 60.9126761 38.304"></polygon>
                    <polygon id="Shape" points="72.5492958 39.816 66.6591549 36.36 62.1338028 39.024 68.0957746 42.48"></polygon>
                    <polygon id="Shape" points="74.5605634 30.312 79.0140845 27.72 72.5492958 24.048 68.1676056 26.64"></polygon>
                    <polygon id="Shape" points="81.671831 34.488 86.1971831 31.824 80.2352113 28.44 75.7816901 31.032"></polygon>
                    <polygon id="Shape" points="79.3014085 35.856 73.3394366 32.472 69.0295775 34.992 74.9915493 38.376"></polygon>
                    <polygon id="Shape" points="72.1183099 31.752 65.7253521 28.008 61.415493 30.528 67.8084507 34.272"></polygon>
                    <polygon id="Shape" points="49.9225352 26.64 42.5957746 22.392 38.0704225 24.984 45.4690141 29.304"></polygon>
                    <polygon id="Shape" points="67.0901408 25.992 71.4 23.4 64.3605634 19.44 60.0507042 21.888"></polygon>
                    <polygon id="Shape" points="53.2985915 25.848 60.4098592 29.952 64.7197183 27.432 57.6802817 23.328"></polygon>
                    <polygon id="Shape" points="44.9661972 21.024 52.3647887 25.272 56.6028169 22.68 49.3478873 18.504"></polygon>
                    <polygon id="Shape" points="30.0971831 20.376 37.1366197 24.48 41.5901408 21.816 34.6225352 17.784"></polygon>
                    <polygon id="Shape" points="22.6267606 16.056 28.8760563 19.656 33.4014085 17.064 27.1521127 13.392"></polygon>
                    <polygon id="Shape" points="36.9929577 16.344 44.0323944 20.448 48.2704225 17.856 41.3028169 13.824"></polygon>
                    <polygon id="Shape" points="15.8028169 19.944 22.0521127 23.616 26.4338028 21.024 20.184507 17.424"></polygon>
                    <polygon id="Shape" points="58.0394366 31.32 50.928169 27.216 46.4028169 29.808 53.5140845 33.984"></polygon>
                    <polygon id="Shape" points="76.2126761 39.096 83.1084507 43.128 87.4183099 40.608 80.5225352 36.576"></polygon>
                    <polygon id="Shape" points="69.2450704 43.128 76.1408451 47.16 80.6661972 44.496 73.7704225 40.536"></polygon>
                    <polygon id="Shape" points="62.4929577 47.088 69.3887324 51.048 73.7704225 48.528 66.8746479 44.568"></polygon>
                    <polygon id="Shape" points="65.6535211 43.848 59.7633803 40.392 55.3816901 42.984 61.343662 46.44"></polygon>
                    <polygon id="Shape" points="39.0760563 4.968 31.1746479 0.432 27.1521127 2.808 35.0535211 7.344"></polygon>
                    <polygon id="Shape" points="55.6690141 51.048 62.4929577 55.08 66.9464789 52.488 60.1225352 48.528"></polygon>
                    <polygon id="Shape" points="4.38169014 16.128 0.215492958 18.504 8.04507042 23.112 12.2112676 20.664"></polygon>
                    <polygon id="Shape" points="87.4183099 32.544 82.8929577 35.208 89.7887324 39.168 94.3859155 36.504"></polygon>
                    <polygon id="Shape" points="52.9394366 44.352 48.5577465 46.944 54.5197183 50.4 58.9014085 47.808"></polygon>
                    <polygon id="Shape" points="13.4323944 21.384 9.1943662 23.832 15.371831 27.432 19.6098592 24.984"></polygon>
                    <polygon id="Shape" points="42.5957746 11.736 46.7619718 9.36 40.3690141 5.688 36.2746479 8.064"></polygon>
                    <polygon id="Shape" points="29.5225352 12.024 35.843662 15.696 40.1535211 13.176 33.9042254 9.504"></polygon>
                    <polygon id="Shape" points="32.6112676 8.784 24.7098592 4.176 20.4 6.696 28.3014085 11.304"></polygon>
                    <polygon id="Shape" points="20.9028169 25.704 16.6647887 28.224 47.3366197 46.152 51.7183099 43.632"></polygon>
                    <polygon id="Shape" points="50.7126761 16.488 54.8788732 13.968 47.9112676 10.008 43.7450704 12.456"></polygon>
                    <polygon id="Shape" points="58.9732394 21.312 63.2830986 18.792 56.028169 14.616 51.7183099 17.064"></polygon>
                    <polygon id="Shape" points="25.9309859 12.672 18.0295775 8.136 13.5042254 10.728 21.4056338 15.336"></polygon>
                    <polygon id="Shape" points="19.0352113 16.704 11.1338028 12.168 6.75211268 14.688 14.6535211 19.296"></polygon>
                </g>
                <path d="M215.780282,250.992 L214.056338,248.112 L211.398592,248.112 C209.674648,245.736 204.430986,243.936 198.18169,243.936 C190.567606,243.936 184.31831,246.528 184.31831,249.768 C184.31831,253.008 190.495775,255.6 198.18169,255.6 C204.502817,255.6 209.81831,253.8 211.470423,251.352 L215.780282,250.992 Z" id="Shape" fill="#F5C487" fill-rule="nonzero"></path>
                <g id="Group" transform="translate(183.887324, 220.320000)" fill-rule="nonzero">
                    <ellipse id="Oval" fill="#F9F9F9" cx="12.4985915" cy="5.688" rx="11.7802817" ry="4.824"></ellipse>
                    <path d="M4.81267606,7.56 C6.6084507,8.352 9.33802817,8.928 12.3549296,8.928 C15.371831,8.928 18.1014085,8.424 19.8971831,7.56 C18.1014085,6.768 15.371831,6.192 12.3549296,6.192 C9.33802817,6.192 6.6084507,6.768 4.81267606,7.56 Z" id="Shape" fill="#B66F3F"></path>
                    <path d="M12.4985915,0.648 C5.96197183,0.648 0.718309859,2.808 0.718309859,5.472 C0.718309859,8.136 5.96197183,10.296 12.4985915,10.296 C19.0352113,10.296 24.2788732,8.136 24.2788732,5.472 C24.2788732,2.808 18.9633803,0.648 12.4985915,0.648 Z M12.4267606,8.928 C7.03943662,8.928 2.65774648,7.272 2.65774648,5.328 C2.65774648,3.384 7.03943662,1.728 12.4267606,1.728 C17.8140845,1.728 22.1957746,3.384 22.1957746,5.328 C22.1957746,7.272 17.8140845,8.928 12.4267606,8.928 Z" id="Shape" fill="#DBF0FF"></path>
                    <g transform="translate(0.000000, 5.040000)" id="Shape">
                        <path d="M0.646478873,0.36 L0.646478873,0.36 L0.646478873,0.36 C0.646478873,0.432 0.646478873,0.432 0.646478873,0.36 Z" fill="#000000"></path>
                        <path d="M24.2788732,0.36 C24.2788732,0.432 24.2788732,0.432 24.2788732,0.36 C24.2788732,3.024 19.0352113,5.184 12.4985915,5.184 C5.96197183,5.184 0.718309859,3.024 0.718309859,0.36 L0.718309859,24.768 C0.718309859,27.432 5.96197183,29.592 12.4985915,29.592 C19.0352113,29.592 24.2788732,27.432 24.2788732,24.768 L24.2788732,0.36 L24.2788732,0.36 Z" fill="#FFFFFF"></path>
                    </g>
                </g>
                <path d="M204,244.224 C204,244.224 206.370423,243.864 207.016901,243.144 L209.387324,243.432 L207.878873,245.952 L206.083099,246.168 L204,244.224 Z" id="Shape" fill="#DBF0FF" fill-rule="nonzero"></path>
                <path d="M203.856338,236.232 L203.856338,234.864 L207.160563,236.664 C207.160563,236.664 208.166197,236.952 208.022535,237.96 L208.309859,245.232 C208.309859,245.232 208.022535,246.672 206.94507,246.816 C206.94507,246.816 206.585915,246.816 206.15493,246.528 L204.071831,245.232 L204.071831,244.152 L206.226761,245.448 C206.226761,245.448 207.016901,245.952 207.088732,245.088 L207.088732,238.464 C207.088732,238.464 207.088732,237.744 206.514085,237.528 L203.856338,236.232 Z" id="Shape" fill="#ACD2E5" fill-rule="nonzero"></path>
                <path d="M203.856338,234.936 C203.856338,234.936 206.226761,234.72 206.801408,234.144 L209.890141,235.656 C209.890141,235.656 210.823944,235.944 210.752113,237.024 L210.752113,244.368 C210.752113,244.368 210.752113,244.944 210.033803,245.448 L207.160563,246.888 C207.160563,246.888 208.022535,246.528 207.950704,245.088 C207.950704,244.296 207.950704,238.176 207.950704,238.176 C207.950704,238.176 208.094366,237.456 207.304225,237.024 L203.856338,234.936 Z" id="Shape" fill="#DBF0FF" fill-rule="nonzero"></path>
                <g id="Group" transform="translate(188.915493, 209.520000)" stroke="#FFFFFF" stroke-linecap="round" stroke-width="0.72">
                    <path d="M8.26056338,0.504 C8.26056338,0.504 9.26619718,1.512 9.26619718,2.952 C9.26619718,4.392 8.6915493,4.896 8.18873239,5.544 C7.68591549,6.192 6.96760563,7.056 6.96760563,8.496 C6.96760563,9.936 8.26056338,10.728 8.26056338,10.728" id="Shape"></path>
                    <path d="M1.93943662,6.048 C1.93943662,6.048 2.94507042,7.056 2.94507042,8.496 C2.94507042,9.936 2.37042254,10.44 1.86760563,11.088 C1.36478873,11.736 0.646478873,12.6 0.646478873,14.04 C0.646478873,15.48 1.93943662,16.272 1.93943662,16.272" id="Shape"></path>
                    <path d="M13.5760563,5.112 C13.5760563,5.112 14.5816901,6.12 14.5816901,7.56 C14.5816901,9 14.0070423,9.504 13.5042254,10.152 C13.0014085,10.8 12.2830986,11.664 12.2830986,13.104 C12.2830986,14.544 13.5760563,15.336 13.5760563,15.336" id="Shape"></path>
                </g>
                <path d="M65.6535211,177.912 C65.5098592,177.912 65.3661972,177.912 65.2225352,177.912 L65.2225352,177.912 C65.2225352,177.912 62.7802817,177.84 63.2112676,176.184 C63.2830986,176.04 63.3549296,175.824 63.5704225,175.68 C63.5704225,175.68 63.5704225,175.68 63.5704225,175.68 C64.0732394,175.248 64.4323944,174.744 64.4323944,174.168 C64.4323944,172.8 62.7084507,171.72 60.5535211,171.72 C58.3985915,171.72 56.6746479,172.8 56.6746479,174.168 C56.6746479,174.456 56.7464789,174.816 56.9619718,175.104 L56.9619718,175.104 C56.9619718,175.104 57.0338028,175.176 57.1056338,175.32 C57.1774648,175.392 57.1774648,175.536 57.1774648,175.536 C57.3929577,176.112 57.6084507,177.624 54.3760563,177.552 C54.3760563,177.552 54.3760563,177.552 54.3042254,177.552 C54.3042254,177.552 54.2323944,177.552 54.2323944,177.552 C53.8732394,177.48 53.5140845,177.48 53.0830986,177.48 C50.928169,177.48 49.2042254,178.632 49.2042254,180 C49.2042254,181.368 50.928169,182.52 53.0830986,182.52 C54.4478873,182.52 55.6690141,182.088 56.315493,181.368 C56.315493,181.368 56.3873239,181.296 56.4591549,181.224 C56.7464789,181.08 58.3267606,180.216 60.6253521,180.864 C61.128169,181.008 61.4873239,181.224 62.0619718,181.512 L62.0619718,181.512 C62.0619718,181.512 62.1338028,181.512 62.2056338,181.656 L62.2056338,181.656 C62.8521127,182.376 64.1450704,182.88 65.5816901,182.88 C67.7366197,182.88 69.4605634,181.8 69.4605634,180.432 C69.5323944,179.064 67.8084507,177.912 65.6535211,177.912 Z" id="Shape" fill="#3A75D6" fill-rule="nonzero"></path>
                <ellipse id="Oval" fill="#103966" fill-rule="nonzero" cx="60.4816901" cy="173.952" rx="2.87323944" ry="1.584"></ellipse>
                <ellipse id="Oval" fill="#103966" fill-rule="nonzero" cx="53.2985915" cy="179.64" rx="2.87323944" ry="1.584"></ellipse>
                <ellipse id="Oval" fill="#103966" fill-rule="nonzero" cx="65.5098592" cy="180.288" rx="2.87323944" ry="1.584"></ellipse>
                <ellipse id="Oval" fill="#103966" fill-rule="nonzero" cx="59.9788732" cy="177.84" rx="2.80140845" ry="1.656"></ellipse>
                <ellipse id="Oval" fill="#FFFFFF" fill-rule="nonzero" cx="60.4816901" cy="173.808" rx="1.36478873" ry="1"></ellipse>
                <ellipse id="Oval" fill="#FFFFFF" fill-rule="nonzero" cx="53.2985915" cy="179.496" rx="1.36478873" ry="1"></ellipse>
                <ellipse id="Oval" fill="#FFFFFF" fill-rule="nonzero" cx="65.5098592" cy="180.144" rx="1.36478873" ry="1"></ellipse>
                <g id="Group" transform="translate(48.845070, 174.240000)" fill="#11416D" fill-rule="nonzero">
                    <path d="M14.7253521,1.296 C14.7253521,1.296 14.7253521,1.296 14.7253521,1.296 C14.5098592,1.512 14.3661972,1.728 14.3661972,1.872 C14.2943662,2.088 14.2943662,2.304 14.3661972,2.52 C14.3661972,2.448 14.3661972,2.448 14.3661972,2.376 C14.4380282,2.232 14.5098592,2.016 14.7253521,1.872 C14.7253521,1.872 14.7253521,1.872 14.7253521,1.872 C15.228169,1.44 15.5873239,0.936 15.5873239,0.36 C15.5873239,0.288 15.5873239,0.144 15.5873239,0.072 C15.515493,0.504 15.228169,0.936 14.7253521,1.296 Z" id="Shape"></path>
                    <path d="M16.8084507,8.496 C15.371831,8.496 14.0788732,7.992 13.4323944,7.272 L13.4323944,7.272 C13.2887324,7.128 13.2887324,7.128 13.2887324,7.128 L13.2887324,7.128 C12.7140845,6.84 12.3549296,6.624 11.8521127,6.48 C9.55352113,5.832 8.04507042,6.624 7.68591549,6.84 C7.61408451,6.912 7.61408451,6.912 7.54225352,6.984 C6.82394366,7.632 5.67464789,8.136 4.30985915,8.136 C2.29859155,8.136 0.646478873,7.128 0.430985915,5.904 C0.430985915,5.976 0.430985915,6.048 0.430985915,6.12 C0.430985915,7.488 2.15492958,8.64 4.30985915,8.64 C5.67464789,8.64 6.89577465,8.208 7.54225352,7.488 C7.54225352,7.488 7.61408451,7.416 7.68591549,7.344 C7.97323944,7.2 9.55352113,6.336 11.8521127,6.984 C12.3549296,7.128 12.7140845,7.344 13.2887324,7.632 L13.2887324,7.632 C13.2887324,7.632 13.3605634,7.632 13.4323944,7.776 L13.4323944,7.776 C14.0788732,8.496 15.371831,9 16.8084507,9 C18.9633803,9 20.6873239,7.92 20.6873239,6.552 C20.6873239,6.48 20.6873239,6.408 20.6873239,6.336 C20.471831,7.56 18.8197183,8.496 16.8084507,8.496 Z" id="Shape"></path>
                    <path d="M8.11690141,1.224 C8.11690141,1.224 8.18873239,1.296 8.26056338,1.44 C8.33239437,1.512 8.33239437,1.656 8.33239437,1.656 C8.33239437,1.728 8.40422535,1.872 8.40422535,2.016 C8.47605634,1.728 8.40422535,1.368 8.33239437,1.224 C8.33239437,1.224 8.26056338,1.152 8.26056338,1.008 C8.18873239,0.936 8.11690141,0.792 8.11690141,0.792 L8.11690141,0.792 C7.97323944,0.576 7.90140845,0.36 7.82957746,0.072 C7.82957746,0.144 7.82957746,0.288 7.82957746,0.36 C7.82957746,0.648 7.90140845,0.936 8.11690141,1.224 L8.11690141,1.224 Z" id="Shape"></path>
                </g>
                <g id="Group" transform="translate(79.014085, 101.520000)" fill-rule="nonzero">
                    <polygon id="Shape" fill="#E5C6A6" points="0.143661972 12.816 20.184507 23.616 20.184507 49.752 0.143661972 38.88"></polygon>
                    <polygon id="Shape" fill="#F5C487" points="20.184507 49.752 48.1267606 37.8 42.3802817 34.632"></polygon>
                    <polygon id="Shape" fill="#E8B98C" points="42.3802817 10.944 20.184507 23.616 20.184507 49.752 42.3802817 37.512"></polygon>
                    <polygon id="Shape" fill="#B8956F" points="0.143661972 12.816 22.1957746 0.144 42.3802817 10.944 20.184507 23.616"></polygon>
                </g>
                <path d="M85.1197183,123.264 C86.1253521,122.616 87.4183099,122.688 88.4957746,123.264 C90.2915493,124.128 92.9492958,126.432 93.0212066,131.904 C93.0212066,131.904 93.0929577,137.808 88.9267606,137.952 C88.9267606,137.952 84.7605634,138.24 83.1084507,131.472 C82.7492958,130.104 82.6774648,128.664 82.8929577,127.296 C83.1084507,125.856 83.6830986,124.2 85.1197183,123.264 Z" id="Shape" fill="#FFFFFF" fill-rule="nonzero"></path>
                <path d="M85.4070423,124.416 C86.2690141,123.84 87.3464789,123.912 88.2802817,124.344 C89.7887324,125.064 92.0873239,127.008 92.2309859,131.688 C92.2309859,131.688 92.3746479,136.8 88.8549296,136.944 C88.8549296,136.944 85.4070423,137.232 83.8985915,131.4 C83.6112676,130.248 83.4676056,129.024 83.6112676,127.8 C83.7549296,126.648 84.1859155,125.208 85.4070423,124.416 Z" id="Shape" fill="#444447" fill-rule="nonzero"></path>
                <path d="M86.1971831,126.144 C86.843662,125.784 87.5619718,125.784 88.2084507,126.072 C89.2859155,126.576 90.9380282,127.944 91.0098592,131.256 C91.0098592,131.256 91.1535211,134.856 88.5676056,134.928 C88.5676056,134.928 86.0535211,135.144 84.9760563,131.04 C84.7605634,130.248 84.6887324,129.384 84.7605634,128.52 C84.9760563,127.728 85.3352113,126.72 86.1971831,126.144 Z" id="Shape" fill="#FFFFFF" fill-rule="nonzero"></path>
                <g id="Group" transform="translate(84.042254, 124.560000)" fill="#444447" fill-rule="nonzero">
                    <polygon id="Shape" points="0.502816901 3.24 3.30422535 10.224 3.80704225 10.368 0.790140845 2.808"></polygon>
                    <polygon id="Shape" points="1.58028169 1.368 5.1 10.728 5.74647887 10.512 2.15492958 0.936"></polygon>
                    <polygon id="Shape" points="3.87887324 0.288 3.37605634 0.72 6.89577465 10.08 7.54225352 9.864"></polygon>
                </g>
                <g id="Group" transform="translate(86.197183, 138.240000)" fill-rule="nonzero">
                    <path d="M0.718309859,0.576 C1.0056338,0.432 1.36478873,0.432 1.65211268,0.576 C2.15492958,0.792 2.94507042,1.44 2.94507042,2.952 C2.94507042,2.952 3.01690141,4.608 1.79577465,4.68 C1.79577465,4.68 0.646478873,4.752 0.143661972,2.88 C0.0718309859,2.52 7.91727794e-15,2.088 0.0718309859,1.728 C0.143661972,1.296 0.35915493,0.792 0.718309859,0.576 Z" id="Shape" fill="#444447"></path>
                    <path d="M1.07746479,1.44 C1.22112676,1.368 1.43661972,1.368 1.65211268,1.44 C1.93943662,1.584 2.37042254,1.944 2.37042254,2.808 C2.37042254,2.808 2.37042254,3.744 1.72394366,3.744 C1.72394366,3.744 1.07746479,3.816 0.790140845,2.736 C0.718309859,2.52 0.718309859,2.304 0.718309859,2.088 C0.790140845,1.8 0.861971831,1.584 1.07746479,1.44 Z" id="Shape" fill="#FFFFFF"></path>
                </g>
                <polygon id="Shape" fill="#613C00" fill-rule="nonzero" points="82.0309859 113.904 101.066197 103.104 118.521127 112.32 99.3422535 123.12"></polygon>
                <polygon id="Shape" fill="#F5C487" fill-rule="nonzero" points="189.777465 190.08 209.387324 183.816 238.550704 194.976 255.215493 185.688 239.771831 176.688 200.049296 163.656"></polygon>
                <path d="M96.5408451,114.984 C96.5408451,114.984 95.1042254,116.28 92.1591549,115.92 C89.2859155,115.56 85.7661972,111.672 84.9760563,106.704 C84.9760563,106.704 87.2028169,110.52 88.1366197,110.736 C88.1366197,110.736 86.2690141,108.144 87.3464789,104.904 C87.3464789,104.904 88.3521127,107.928 90.7225352,110.448 C90.7225352,110.448 89.5732394,107.712 90.0042254,104.544 C90.0042254,104.544 91.584507,110.232 94.0267606,111.24 C94.0267606,111.24 95.1760563,111.672 95.3915493,110.664 C95.3915493,110.664 94.8169014,109.224 95.2478873,108.288 C95.2478873,108.288 95.4633803,110.16 96.5408451,109.656 C96.5408451,109.656 96.971831,109.296 96.5408451,108.288 C96.1098592,107.28 94.8887324,104.688 94.7450704,103.824 C94.7450704,103.824 96.6126761,105.912 97.043662,106.056 C97.043662,106.056 95.5352113,104.616 95.9661972,102.24 C95.9661972,102.24 96.971831,105.048 98.9112676,106.344 L98.4084507,102.24 C98.4084507,102.24 101.138028,108 102.215493,108.144 C103.292958,108.288 106.022535,103.752 106.238028,101.664 C106.238028,101.664 107.387324,103.32 105.447887,106.704 C105.447887,106.704 107.746479,107.064 109.398592,101.664 C109.398592,101.664 109.973239,103.752 108.53662,107.208 C108.53662,107.208 109.757746,106.848 111.697183,103.32 C111.697183,103.32 110.619718,112.176 103.005634,112.608 L102.215493,112.68 L103.221127,114.552 C103.221127,114.552 106.812676,113.4 106.956338,110.304 C106.956338,110.304 108.321127,110.952 107.459155,113.544 C106.597183,116.136 110.404225,111.024 110.619718,109.656 C110.619718,109.656 111.194366,110.664 109.757746,113.328 L111.409859,111.384 C111.409859,111.384 111.194366,116.496 105.088732,118.512 C105.088732,118.512 102.143662,119.52 98.3366197,117.144 L96.5408451,114.984 Z" id="Shape" fill="#78D039" fill-rule="nonzero"></path>
                <g id="Group" transform="translate(86.915493, 101.520000)" fill="#4EAD36" fill-rule="nonzero">
                    <path d="M3.73521127,11.232 C4.23802817,11.448 4.74084507,10.872 4.52535211,10.368 L3.87887324,8.928 C3.87887324,8.928 2.22676056,7.632 0.502816901,3.384 C0.502816901,3.384 -0.502816901,5.616 1.29295775,9.216 C1.29295775,9.216 1.79577465,10.44 3.73521127,11.232 Z" id="Shape"></path>
                    <path d="M11.7802817,9.144 C11.7802817,9.144 11.1338028,7.488 10.8464789,7.272 C10.6309859,7.128 7.75774648,2.232 7.75774648,2.232 C10.8464789,8.208 9.55352113,8.064 9.55352113,8.064 C8.26056338,8.856 8.26056338,6.696 8.26056338,6.696 C8.11690141,7.92 8.18873239,8.28 8.40422535,9.072 C8.61971831,9.864 10.2,10.224 10.2,10.224 C12.1394366,11.448 11.7802817,9.144 11.7802817,9.144 Z" id="Shape"></path>
                    <path d="M22.5549296,0.144 C22.5549296,0.144 21.4056338,5.256 18.6042254,5.184 L17.4549296,5.832 C17.4549296,5.832 15.371831,7.632 17.4549296,7.344 C19.5380282,7.056 21.6929577,5.688 21.6929577,5.688 C21.6929577,5.688 22.8422535,3.168 22.5549296,0.144 Z" id="Shape"></path>
                    <path d="M0.933802817,11.592 C0.933802817,11.592 2.80140845,13.896 5.24366197,14.4 C5.24366197,14.4 8.47605634,14.688 9.62535211,13.464 L9.12253521,12.888 C9.12253521,12.888 4.95633803,14.472 0.933802817,11.592 Z" id="Shape"></path>
                    <path d="M10.343662,10.296 C11.0619718,13.824 11.4929577,12.96 11.4929577,12.96 C14.4380282,15.192 13.0732394,12.6 13.0732394,12.6 C11.9957746,12.528 10.343662,10.296 10.343662,10.296 Z" id="Shape"></path>
                    <path d="M15.3,6.624 C13.1450704,5.976 11.4929577,0.72 11.4929577,0.72 C12.2112676,3.96 11.9957746,6.552 13.7915493,7.344 C15.515493,8.136 15.3,6.624 15.3,6.624 Z" id="Shape"></path>
                    <path d="M20.1126761,9.288 C20.1126761,9.072 20.0408451,8.928 20.0408451,8.712 C20.0408451,8.712 20.0408451,8.928 19.9690141,9.36 C17.3830986,10.296 14.6535211,10.296 14.6535211,10.296 L15.3,11.16 C17.2394366,11.016 18.7478873,10.44 19.8253521,9.864 C19.5380282,10.944 18.6760563,12.6 16.1619718,13.464 C12.2830986,14.832 16.9521127,14.184 16.9521127,14.184 C16.9521127,14.184 20.543662,13.968 20.1126761,9.648 C21.0464789,9.072 21.5492958,8.64 21.5492958,8.64 C21.1183099,8.928 20.615493,9.144 20.1126761,9.288 Z" id="Shape"></path>
                </g>
                <g id="Group" transform="translate(142.225352, 154.080000)" fill-rule="nonzero">
                    <path d="M18.1732394,1.008 L0.790140845,10.944 C0.790140845,10.944 0.790140845,11.016 0.718309859,11.664 C0.646478873,13.104 2.37042254,13.896 2.37042254,13.896 L41.4464789,36.504 C41.4464789,36.504 43.9605634,38.448 47.4802817,36.792 C51,35.136 64.8633803,28.656 64.8633803,28.656 L18.1732394,1.008 Z" id="Shape" fill="#95CDFF"></path>
                    <path d="M18.1732394,0.288 L2.94507042,8.784 C2.94507042,8.784 0.933802817,9.72 0.790140845,10.944 C0.646478873,12.312 2.44225352,13.176 2.44225352,13.176 L41.5183099,35.784 C41.5183099,35.784 44.0323944,37.728 47.5521127,36.072 C51.071831,34.416 64.9352113,27.936 64.9352113,27.936 L18.1732394,0.288 Z" id="Shape" fill="#DBF0FF"></path>
                    <polygon id="Shape" fill="#95CDFF" opacity="0.52" points="11.7084507 3.888 56.7464789 30.24 51.071831 34.344 64.9352113 27.864 18.1732394 0.288"></polygon>
                </g>
                <g id="Group" transform="translate(126.422535, 35.280000)" fill-rule="nonzero">
                    <path d="M1.22112676,2.016 C1.22112676,2.016 1.93943662,0.288 6.03380282,0.288 C6.6084507,0.288 7.11126761,0.432 7.61408451,0.72 L109.757746,60.408 C109.757746,60.408 113.492958,62.712 113.42215,68.256 L113.42215,156.6 C113.42215,157.752 113.133803,158.976 112.2,159.696 C109.973239,161.496 107.674648,161.64 106.238028,161.496 C105.591549,161.424 105.591549,160.344 105.016901,160.056 L8.33239437,103.032 C8.33239437,103.032 3.16056338,100.152 3.5915493,94.608 L1.22112676,2.016 Z" id="Shape" fill="#95CDFF"></path>
                    <path d="M0.646478873,3.888 C0.646478873,3.888 0.646478873,1.008 3.08873239,1.008 C3.66338028,1.008 4.16619718,1.152 4.66901408,1.44 L106.812676,61.128 C106.812676,61.128 110.547887,63.432 110.477079,68.976 L110.477079,157.32 C110.477079,158.472 110.04507,159.624 109.25493,160.416 C108.608451,161.064 107.602817,161.64 106.166197,161.496 C105.519718,161.424 104.873239,161.208 104.298592,160.848 L5.38732394,103.752 C5.38732394,103.752 0.215492958,100.872 0.646478873,95.328 L0.646478873,3.888 Z" id="Shape" fill="#DBF0FF"></path>
                    <path d="M4.30985915,10.44 C4.30985915,10.44 4.16619718,7.632 5.31549296,7.128 C6.32112676,6.696 7.03943662,7.2 7.47042254,7.488 L102.502817,63 C102.502817,63 105.950704,65.16 105.878873,70.2 L105.878873,151.344 C105.878873,152.424 105.950704,154.512 105.232394,155.232 C104.585915,155.88 103.580282,156.168 102.430986,155.664 C101.856338,155.448 100.707042,154.872 100.204225,154.584 L8.61971831,102.096 C8.61971831,102.096 3.87887324,99.432 4.30985915,94.392 L4.30985915,10.44 Z" id="Shape" fill="#6A90E5"></path>
                </g>
                <g id="Group" transform="translate(135.042254, 51.840000)" fill="#FFFFFF" fill-rule="nonzero">
                    <path d="M0.502816901,2.376 L0.502816901,2.448 C0.502816901,3.816 1.22112676,5.112 2.44225352,5.76 L35.1971831,24.768 C36.1309859,25.344 37.3521127,24.624 37.3521127,23.544 L37.3521127,22.896 C37.3521127,21.456 36.5619718,20.088 35.2690141,19.296 L3.23239437,0.72 C2.01126761,0.144 0.502816901,1.008 0.502816901,2.376 Z" id="Shape"></path>
                    <path d="M41.3746479,25.992 L41.3746479,25.992 C41.3028169,27.432 42.0211268,28.8 43.3140845,29.52 L55.956338,36.864 C57.1774648,37.584 58.6859155,36.72 58.6859155,35.28 L58.6859155,34.704 C58.6859155,33.624 58.1112676,32.688 57.1774648,32.112 L44.0323944,24.48 C42.8830986,23.832 41.4464789,24.624 41.3746479,25.992 Z" id="Shape"></path>
                    <path d="M62.1338028,38.016 L62.1338028,38.016 C62.0619718,39.456 62.7802817,40.824 64.0732394,41.544 L89.3577465,56.232 C90.6507042,57.024 92.3028169,56.016 92.3028169,54.504 L92.3028169,54.144 C92.3028169,53.064 91.728169,52.056 90.7943662,51.552 L64.7915493,36.504 C63.7140845,35.856 62.2056338,36.72 62.1338028,38.016 Z" id="Shape"></path>
                    <path d="M22.1239437,26.784 L22.1239437,27.144 C22.0521127,29.016 22.9859155,30.816 24.5661972,31.752 L36.8492958,38.88 C37.9985915,39.528 39.5070423,38.736 39.5070423,37.368 L39.5070423,36.864 C39.5070423,35.64 38.8605634,34.56 37.8549296,33.984 L23.9197183,25.92 C23.1295775,25.416 22.1239437,25.92 22.1239437,26.784 Z" id="Shape"></path>
                    <path d="M0.502816901,14.688 L0.502816901,14.904 C0.502816901,16.704 1.43661972,18.288 2.94507042,19.224 L15.443662,26.496 C16.5211268,27.144 17.8859155,26.352 17.8859155,25.056 L17.8859155,24.336 C17.8859155,23.184 17.2394366,22.032 16.2338028,21.456 L2.51408451,13.464 C1.65211268,12.96 0.502816901,13.608 0.502816901,14.688 Z" id="Shape"></path>
                    <path d="M45.4690141,43.776 L89.2859155,69.192 C90.6507042,69.984 92.3746479,68.976 92.3746479,67.392 L92.3746479,67.392 C92.3746479,66.168 91.728169,65.088 90.6507042,64.44 L45.0380282,38.016 C44.1760563,37.512 43.0267606,38.088 42.9549296,39.168 L42.9549296,39.24 C42.8830986,41.112 43.8887324,42.912 45.4690141,43.776 Z" id="Shape"></path>
                    <path d="M77.0028169,75.024 L90.4352113,82.8 C91.2971831,83.304 92.3746479,82.656 92.3746479,81.72 L92.3746479,81.72 C92.3746479,79.704 91.2971831,77.832 89.5732394,76.824 L76.428169,69.192 C75.5661972,68.688 74.4887324,69.264 74.4887324,70.272 L74.4887324,70.272 C74.3450704,72.216 75.2788732,74.016 77.0028169,75.024 Z" id="Shape"></path>
                    <path d="M0.502816901,27.504 L0.502816901,27.648 C0.502816901,29.52 1.5084507,31.176 3.08873239,32.112 L16.0901408,39.672 C16.9521127,40.176 17.9577465,39.528 17.9577465,38.592 L17.9577465,38.592 C17.9577465,36.576 16.8802817,34.704 15.156338,33.696 L2.51408451,26.352 C1.65211268,25.848 0.502816901,26.496 0.502816901,27.504 Z" id="Shape"></path>
                    <path d="M21.3338028,39.528 L21.3338028,39.528 C21.2619718,41.472 22.2676056,43.272 23.9197183,44.28 L68.9577465,70.416 C69.8197183,70.92 70.8253521,70.272 70.8253521,69.336 L70.8253521,69.336 C70.8253521,67.32 69.7478873,65.448 68.0239437,64.44 L23.3450704,38.52 C22.4830986,37.944 21.4056338,38.52 21.3338028,39.528 Z" id="Shape"></path>
                    <path d="M57.0338028,76.32 L90.2915493,95.616 C91.1535211,96.12 92.3028169,95.472 92.3028169,94.464 L92.3028169,94.464 C92.3028169,92.52 91.2971831,90.72 89.5732394,89.712 L57.1056338,70.92 C56.1,70.344 54.8070423,71.064 54.7352113,72.216 L54.7352113,72.216 C54.7352113,73.872 55.5971831,75.456 57.0338028,76.32 Z" id="Shape"></path>
                    <path d="M0.502816901,40.824 L0.502816901,40.824 C0.502816901,42.552 1.36478873,44.064 2.80140845,44.856 L28.1577465,59.544 C29.0915493,60.12 30.3126761,59.4 30.3126761,58.32 L30.3126761,58.32 C30.3126761,56.52 29.3070423,54.792 27.7985915,53.928 L2.94507042,39.528 C1.86760563,38.88 0.502816901,39.6 0.502816901,40.824 Z" id="Shape"></path>
                    <path d="M33.8323944,60.048 L33.8323944,60.048 C33.7605634,61.704 34.6225352,63.288 36.0591549,64.152 L49.5633803,72 C50.3535211,72.432 51.2873239,71.856 51.2873239,70.992 L51.2873239,70.992 C51.2873239,68.832 50.1380282,66.888 48.2704225,65.808 L36.1309859,58.824 C35.1253521,58.176 33.9042254,58.896 33.8323944,60.048 Z" id="Shape"></path>
                    <path d="M0.502816901,53.424 L0.502816901,53.424 C0.502816901,55.296 1.5084507,57.024 3.08873239,57.96 L47.1211268,83.52 C48.1267606,84.096 49.4197183,83.376 49.4197183,82.224 L49.4197183,82.224 C49.4197183,80.496 48.4859155,78.84 46.9774648,77.976 L2.65774648,52.272 C1.72394366,51.696 0.502816901,52.344 0.502816901,53.424 Z" id="Shape"></path>
                    <path d="M76.8591549,100.728 L90.1478873,108.432 C91.0816901,109.008 92.3028169,108.288 92.3028169,107.208 L92.3028169,107.208 C92.3028169,105.336 91.2971831,103.68 89.7169014,102.744 L76.428169,95.04 C75.4943662,94.536 74.4169014,95.112 74.3450704,96.192 L74.3450704,96.192 C74.3450704,98.064 75.2788732,99.792 76.8591549,100.728 Z" id="Shape"></path>
                    <path d="M52.9394366,83.808 L52.9394366,83.808 C52.8676056,85.608 53.8014085,87.336 55.3098592,88.2 L69.0295775,96.192 C69.8197183,96.624 70.8253521,96.048 70.8253521,95.184 L70.8253521,95.184 C70.8253521,93.096 69.6760563,91.152 67.8802817,90.072 L55.0225352,82.656 C54.1605634,82.08 53.0112676,82.728 52.9394366,83.808 Z" id="Shape"></path>
                    <path d="M0.502816901,66.384 L0.502816901,66.384 C0.502816901,68.04 1.36478873,69.624 2.87323944,70.488 L16.1619718,78.192 C16.9521127,78.624 17.9577465,78.048 17.9577465,77.112 L17.9577465,77.112 C17.9577465,75.024 16.8802817,73.152 15.084507,72.072 L2.80140845,64.944 C1.86760563,64.44 0.502816901,65.16 0.502816901,66.384 Z" id="Shape"></path>
                    <path d="M76.643662,113.256 L90.7943662,121.464 C91.4408451,121.824 92.3028169,121.392 92.3028169,120.6 L92.3028169,120.6 C92.3028169,118.296 91.0816901,116.136 89.0704225,114.984 L76.715493,107.856 C75.7098592,107.28 74.4169014,108 74.3450704,109.152 L74.3450704,109.152 C74.3450704,110.808 75.2070423,112.392 76.643662,113.256 Z" id="Shape"></path>
                    <path d="M21.5492958,78.48 L21.5492958,78.48 C21.4774648,80.136 22.3394366,81.72 23.7760563,82.584 L68.9577465,108.792 C69.8197183,109.296 70.8971831,108.648 70.8971831,107.712 L70.8971831,107.712 C70.8971831,105.696 69.8197183,103.824 68.0957746,102.816 L23.9197183,77.184 C22.8422535,76.608 21.6211268,77.328 21.5492958,78.48 Z" id="Shape"></path>
                    <path d="M64.5042254,117.576 L90.7943662,132.84 C91.5126761,133.272 92.3746479,132.768 92.3746479,131.904 L92.3746479,131.904 C92.3746479,129.672 91.1535211,127.584 89.2140845,126.432 L64.6478873,112.248 C63.6422535,111.672 62.3492958,112.392 62.2774648,113.544 L62.2774648,113.544 C62.2056338,115.2 63.0676056,116.712 64.5042254,117.576 Z" id="Shape"></path>
                    <path d="M0.502816901,77.184 L0.502816901,77.184 C0.502816901,79.2 1.58028169,81.072 3.30422535,82.08 L35.484507,100.728 C36.4901408,101.304 37.6394366,100.584 37.6394366,99.432 L37.6394366,99.432 C37.6394366,97.632 36.7056338,95.976 35.1253521,95.04 L2.37042254,76.032 C1.58028169,75.672 0.502816901,76.248 0.502816901,77.184 Z" id="Shape"></path>
                    <path d="M41.2309859,100.728 L41.2309859,100.728 C41.1591549,102.744 42.1647887,104.616 43.8887324,105.696 L56.8183099,113.184 C57.6802817,113.688 58.7577465,113.04 58.7577465,112.104 L58.7577465,112.104 C58.7577465,110.088 57.6802817,108.216 55.956338,107.208 L43.0985915,99.792 C42.3084507,99.216 41.3028169,99.792 41.2309859,100.728 Z" id="Shape"></path>
                </g>
                <ellipse id="Oval" fill="#F5C487" fill-rule="nonzero" cx="266.780282" cy="223.704" rx="13.9352113" ry="5.832"></ellipse>
                <g id="Group" transform="translate(252.845070, 195.840000)" fill-rule="nonzero">
                    <path d="M0,4.896 L0,27.936 L0,27.936 C0.143661972,30.312 5.31549296,32.256 11.7084507,32.256 C18.0295775,32.256 23.2014085,30.312 23.4169014,27.936 L23.4169014,27.936 L23.4169014,4.896 L0,4.896 Z" id="Shape" fill="#3DA8E2"></path>
                    <ellipse id="Oval" fill="#FFFFFF" cx="11.7084507" cy="4.824" rx="11.7084507" ry="4.824"></ellipse>
                    <ellipse id="Oval" fill="#613C00" cx="11.7084507" cy="4.392" rx="10.5591549" ry="4.104"></ellipse>
                    <g opacity="0.53" transform="translate(7.901408, 4.320000)" fill="#FFFFFF" id="Shape">
                        <path d="M6.32112676,5.256 C5.53098592,5.328 4.66901408,5.4 3.80704225,5.4 C2.65774648,5.4 1.5084507,5.328 0.430985915,5.184 L0.430985915,27.72 C1.5084507,27.864 2.58591549,27.936 3.80704225,27.936 C4.66901408,27.936 5.53098592,27.864 6.32112676,27.864 L6.32112676,5.256 Z" opacity="0.68"></path>
                        <path d="M15.515493,0.576 C15.443662,2.52 12.4985915,4.248 8.40422535,4.968 L8.40422535,27.576 C12.4985915,26.928 15.371831,25.416 15.515493,23.616 L15.515493,23.616 L15.515493,0.576 L15.515493,0.576 Z" opacity="0.68"></path>
                    </g>
                </g>
                <path d="M264.553521,196.056 L266.564789,201.384 L274.969014,200.088 L276.11831,199.872 C275.902817,199.152 275.040845,198.144 273.24507,197.352 C271.449296,196.56 269.222535,196.128 269.222535,196.128 L264.553521,196.056 Z" id="Shape" fill="#000000" fill-rule="nonzero" opacity="0.49"></path>
                <path d="M275.4,177.624 C274.178873,177.84 273.316901,178.992 273.316901,180.288 L273.316901,185.688 C273.316901,186.48 272.670423,187.128 271.880282,187.128 L269.366197,187.128 L269.366197,173.736 C269.366197,170.928 267.139437,168.696 264.338028,168.696 C261.53662,168.696 259.309859,170.928 259.309859,173.736 L259.309859,182.232 L257.15493,182.232 C256.364789,182.232 255.71831,181.584 255.71831,180.792 L255.71831,175.392 C255.71831,174.096 254.856338,172.944 253.635211,172.728 C251.911268,172.368 250.402817,173.664 250.402817,175.32 L250.402817,181.368 C250.402817,184.752 253.132394,187.488 256.508451,187.488 L259.166197,187.488 L259.166197,200.16 C259.166197,200.88 261.392958,201.456 264.194366,201.456 C266.995775,201.456 269.222535,200.88 269.222535,200.16 L269.222535,192.384 L273.173239,192.384 C276.11831,192.384 278.488732,190.008 278.488732,187.056 L278.488732,180.216 C278.560563,178.56 277.123944,177.264 275.4,177.624 Z" id="Shape" fill="#78D039" fill-rule="nonzero"></path>
                <path d="M152.066197,0.72 L178.787324,16.128 C180.942254,17.352 182.16338,19.656 182.16338,22.104 L181.588732,45.576 C181.588732,47.016 180.080282,47.88 178.787324,47.232 L174.11831,44.712 C174.11831,44.712 173.759155,45.576 173.615493,47.088 C173.471831,48.6 173.4,50.616 173.4,50.616 C173.4,50.616 171.173239,47.664 170.45493,46.152 C169.73662,44.64 169.090141,41.616 169.090141,41.616 L152.066197,30.744 C150.629577,29.808 149.695775,28.224 149.695775,26.496 L149.480282,2.232 C149.480282,0.936 150.916901,0.072 152.066197,0.72 Z" id="Shape" fill="#E9F2FA" fill-rule="nonzero"></path>
                <path d="M202.060563,10.944 L235.461972,30.816 C238.119718,32.4 239.771831,35.28 239.7,38.448 L239.340845,67.464 C239.340845,69.984 236.611268,71.568 234.384507,70.272 L212.547887,57.672 C212.260563,57.528 211.973239,57.6 211.829577,57.888 C211.542254,58.68 210.823944,60.048 210.105634,60.984 C208.884507,62.496 207.591549,63.432 206.729577,64.008 C206.370423,64.224 205.867606,63.936 205.939437,63.432 C206.226761,62.28 206.585915,60.408 206.657746,59.328 C207.016901,55.512 206.298592,53.928 206.083099,53.496 C206.011268,53.424 205.939437,53.352 205.867606,53.28 L200.408451,50.328 C198.109859,49.104 196.74507,46.728 196.74507,44.136 L196.74507,13.824 C196.74507,11.232 199.690141,9.576 202.060563,10.944 Z" id="Shape" fill="#E9F2FA" fill-rule="nonzero"></path>
                <path d="M227.488732,41.76 C226.770423,41.256 226.052113,40.752 225.261972,40.32 C225.477465,39.744 225.621127,39.168 225.692958,38.664 C226.195775,36.144 225.621127,34.128 224.184507,32.832 C223.466197,32.184 222.24507,31.536 220.377465,31.752 C219.3,31.896 218.078873,32.256 216.929577,32.904 C214.2,29.376 211.398592,26.856 209.674648,27.072 C207.950704,27.288 208.094366,30.096 209.315493,33.768 C207.66338,33.408 206.298592,33.336 205.292958,33.408 C203.569014,33.624 203.209859,34.416 203.28169,35.064 C203.353521,36.936 206.083099,39.384 209.746479,41.688 C209.530986,42.264 209.387324,42.768 209.315493,43.344 C208.884507,45.792 209.387324,47.736 210.752113,49.032 C211.398592,49.68 212.619718,50.4 214.415493,50.256 C215.492958,50.184 216.642254,49.824 217.791549,49.176 C220.592958,52.92 223.538028,55.656 225.405634,55.584 C227.34507,55.512 227.129577,52.488 225.764789,48.6 C227.560563,49.032 229.069014,49.176 230.21831,49.104 C232.157746,48.96 232.588732,48.096 232.516901,47.376 C232.373239,45.936 230.649296,43.992 227.488732,41.76 Z M221.023944,32.904 C222.101408,32.76 223.035211,32.976 223.609859,33.48 C224.543662,34.272 224.830986,35.928 224.471831,37.872 C224.4,38.448 224.184507,38.952 224.040845,39.528 C222.819718,38.808 221.526761,38.16 220.233803,37.512 C219.443662,36.288 218.653521,35.064 217.86338,33.984 C218.869014,33.408 220.01831,32.976 221.023944,32.904 Z M212.04507,39.96 C212.260563,40.464 212.547887,40.968 212.835211,41.4 C213.122535,41.904 213.409859,42.408 213.625352,42.84 C212.76338,42.408 211.973239,41.976 211.25493,41.544 C211.470423,41.04 211.685915,40.464 212.04507,39.96 Z M211.901408,37.512 C211.542254,36.648 211.183099,35.928 210.895775,35.136 C211.614085,35.352 212.404225,35.568 213.266197,35.784 C213.050704,36.072 212.76338,36.288 212.547887,36.576 C212.332394,36.936 212.116901,37.224 211.901408,37.512 Z M212.619718,39.024 C212.907042,38.52 213.266197,38.088 213.625352,37.656 C213.984507,37.224 214.415493,36.792 214.774648,36.36 C215.564789,36.648 216.35493,36.936 217.14507,37.296 C217.935211,37.656 218.797183,38.016 219.587324,38.376 C220.01831,39.096 220.521127,39.888 220.952113,40.752 C221.383099,41.544 221.814085,42.336 222.173239,43.128 C221.814085,43.632 221.526761,44.064 221.095775,44.496 C220.73662,44.928 220.305634,45.36 219.874648,45.792 C219.084507,45.504 218.294366,45.144 217.432394,44.784 C216.570423,44.424 215.780282,44.064 215.061972,43.704 C214.630986,42.984 214.2,42.192 213.697183,41.4 C213.338028,40.536 212.978873,39.744 212.619718,39.024 Z M222.24507,45.504 C222.460563,45.216 222.747887,44.928 222.96338,44.64 C223.394366,45.504 223.68169,46.296 224.040845,47.088 C223.250704,46.872 222.388732,46.584 221.526761,46.296 C221.742254,46.008 222.029577,45.792 222.24507,45.504 Z M222.819718,42.12 C222.532394,41.616 222.316901,41.112 222.029577,40.608 C221.742254,40.104 221.45493,39.6 221.167606,39.096 C222.029577,39.528 222.891549,39.96 223.68169,40.464 C223.394366,40.968 223.107042,41.544 222.819718,42.12 Z M217.001408,34.488 C217.504225,35.208 218.078873,36 218.58169,36.792 C218.078873,36.576 217.576056,36.36 217.073239,36.144 C216.570423,35.928 216.067606,35.712 215.564789,35.568 C216.067606,35.208 216.570423,34.848 217.001408,34.488 Z M210.321127,28.152 C211.326761,28.008 213.625352,29.952 216.211268,33.336 C215.492958,33.84 214.774648,34.344 214.128169,34.992 C212.835211,34.56 211.685915,34.2 210.53662,33.912 C209.315493,30.528 209.243662,28.296 210.321127,28.152 Z M204.430986,35.568 C204.430986,34.992 204.933803,34.632 205.939437,34.56 C206.873239,34.488 208.238028,34.56 209.746479,34.92 C210.177465,36.072 210.680282,37.296 211.25493,38.448 C210.752113,39.24 210.321127,40.032 210.033803,40.824 C206.585915,38.664 204.430986,36.648 204.430986,35.568 Z M213.697183,49.032 C212.691549,49.104 211.757746,48.888 211.25493,48.312 C210.392958,47.52 210.105634,45.936 210.464789,43.992 C210.53662,43.488 210.680282,42.912 210.895775,42.408 C212.04507,43.128 213.266197,43.776 214.559155,44.424 C215.349296,45.648 216.139437,46.872 216.929577,48.024 C215.780282,48.6 214.702817,48.96 213.697183,49.032 Z M217.647887,47.52 C217.14507,46.8 216.570423,46.008 216.067606,45.144 C216.570423,45.36 217.073239,45.576 217.576056,45.864 C218.078873,46.08 218.58169,46.296 219.084507,46.512 C218.653521,46.872 218.150704,47.232 217.647887,47.52 Z M224.687324,54.36 C223.609859,54.432 221.239437,52.272 218.58169,48.744 C219.3,48.312 220.01831,47.736 220.73662,47.088 C222.029577,47.592 223.322535,47.952 224.471831,48.312 C225.764789,51.984 225.764789,54.288 224.687324,54.36 Z M229.428169,47.88 C228.350704,47.952 226.914085,47.808 225.190141,47.376 C224.759155,46.152 224.184507,44.928 223.538028,43.632 C224.040845,42.84 224.471831,41.976 224.830986,41.184 C225.621127,41.688 226.339437,42.12 227.057746,42.624 C229.5,44.352 231.008451,45.936 231.080282,46.872 C231.152113,47.448 230.577465,47.808 229.428169,47.88 Z M218.940845,43.992 C220.377465,43.848 220.808451,42.408 219.874648,40.752 C218.940845,39.096 217.073239,37.872 215.63662,38.016 C214.2,38.16 213.769014,39.6 214.702817,41.256 C215.564789,42.84 217.504225,44.064 218.940845,43.992 Z" id="Shape" fill="#4E71F2" fill-rule="nonzero"></path>
                <path d="M207.591549,210.24 C207.591549,210.24 209.387324,209.736 214.774648,206.64 C219.802817,203.76 221.239437,203.04 221.239437,203.04 C221.239437,203.04 223.394366,201.6 221.957746,200.16 C220.449296,198.648 207.591549,210.24 207.591549,210.24 Z" id="Shape" fill="#F5C487" fill-rule="nonzero"></path>
                <path d="M173.543662,30.744 C171.604225,23.112 163.630986,19.584 163.630986,19.584 C163.630986,19.584 163.343662,18.72 162.409859,18.216 C161.76338,17.856 161.404225,18.792 161.404225,19.368 C161.404225,19.872 161.404225,20.664 162.48169,21.24 C163.559155,21.672 163.630986,20.52 163.630986,20.52 C166.576056,22.248 168.084507,23.544 168.084507,23.544 C173.040845,27.72 172.825352,32.616 172.825352,32.616 C172.897183,34.92 171.819718,35.496 171.819718,35.496 C169.952113,37.008 166.576056,33.984 166.576056,33.984 C166.576056,33.984 166.14507,33.696 165.929577,33.984 C165.714085,34.2 166.001408,34.632 166.001408,34.632 C166.791549,35.352 168.012676,36.072 168.802817,36.504 C169.377465,36.792 169.952113,37.008 170.45493,37.152 C175.267606,38.016 173.543662,30.744 173.543662,30.744 Z M167.509859,29.16 C167.509859,29.16 168.228169,29.592 168.659155,28.872 C168.946479,28.368 168.3,27.144 167.797183,26.64 C167.438028,26.208 166.791549,25.488 166.216901,26.352 C165.857746,27.288 166.719718,28.368 166.719718,28.368 C165.283099,30.384 164.277465,30.96 164.277465,30.96 C161.332394,32.904 158.171831,29.088 158.171831,29.088 C156.735211,27.504 156.304225,25.992 156.304225,25.992 C155.226761,22.968 157.022535,21.312 157.022535,21.312 C157.022535,21.312 157.166197,21.024 157.022535,20.592 C156.878873,20.16 156.591549,20.16 156.591549,20.16 C156.160563,20.592 155.729577,21.456 155.514085,22.032 C155.370423,22.464 155.226761,22.896 155.226761,23.4 C155.011268,27.792 159.392958,31.248 159.392958,31.248 C164.63662,34.992 167.509859,29.16 167.509859,29.16 Z M160.111268,26.568 C160.326761,27.504 161.332394,28.08 161.835211,28.152 C162.194366,28.152 162.840845,28.296 162.409859,26.712 C161.835211,25.128 160.901408,24.984 160.901408,24.984 C159.895775,20.952 159.752113,19.08 159.752113,19.08 C159.105634,12.96 162.697183,12.96 162.697183,12.96 C164.349296,12.96 165.283099,13.968 165.283099,13.968 C168.156338,16.344 167.509859,20.448 167.509859,20.448 C167.509859,20.448 167.653521,21.096 168.084507,21.456 C168.515493,21.816 168.587324,21.384 168.587324,21.384 C168.443662,20.16 168.874648,18.792 168.515493,17.712 C168.228169,16.92 168.084507,16.056 167.653521,15.336 C164.205634,9.288 160.757746,12.168 160.757746,12.168 C156.950704,14.688 160.111268,24.912 160.111268,24.912 C160.111268,24.912 159.752113,25.272 160.111268,26.568 Z" id="Shape" fill="#F23F45" fill-rule="nonzero"></path>
                <path d="M201.485915,211.392 C201.485915,211.392 204.359155,212.544 210.895775,208.368 C217.432394,204.192 220.233803,203.112 220.233803,203.112 C220.233803,203.112 223.825352,201.168 221.814085,200.592 C219.802817,200.016 212.476056,201.6 212.476056,201.6 L201.485915,211.392 Z" id="Shape" fill="#95CDFF" fill-rule="nonzero"></path>
                <path d="M67.5211268,154.872 L68.2394366,155.52 C68.2394366,155.52 68.9577465,156.24 68.2394366,156.96 C67.5211268,157.68 48.1267606,170.64 48.1267606,170.64 C48.1267606,170.64 46.6901408,171.36 44.9661972,170.928 C43.4577465,170.64 67.5211268,154.872 67.5211268,154.872 Z" id="Shape" fill="#F5C487" fill-rule="nonzero"></path>
                <path d="M196.601408,206.064 C196.601408,206.064 198.397183,201.888 208.238028,197.856 C208.238028,197.856 213.338028,195.696 218.58169,198.36 C218.58169,198.36 221.885915,199.728 222.316901,200.808 C222.676056,201.744 221.383099,202.32 220.090141,202.608 C218.366197,203.04 212.978873,204.768 208.309859,208.944 C203.640845,213.12 199.977465,211.104 199.977465,211.104 C199.977465,211.104 195.092958,208.944 196.601408,206.064 Z" id="Shape" fill="#DBF0FF" fill-rule="nonzero"></path>
                <g id="Group" transform="translate(35.915493, 149.760000)" fill-rule="nonzero">
                    <path d="M31.6056338,6.336 L31.6056338,6.336 L31.6056338,5.184 L31.1746479,5.688 C31.1746479,5.688 31.1028169,5.616 31.1028169,5.616 L22.6267606,1.584 C21.6929577,1.152 20.6873239,1.224 19.8253521,1.8 L1.93943662,13.896 L0.430985915,14.184 L0.430985915,15.408 L0.430985915,15.408 C0.430985915,15.624 0.574647887,15.84 0.790140845,15.984 L8.40422535,20.952 C9.33802817,21.528 10.4873239,21.528 11.3492958,20.88 L31.1746479,7.2 C31.5338028,6.984 31.6774648,6.624 31.6056338,6.336 Z" id="Shape" fill="#95CDFF"></path>
                    <path d="M22.6267606,0.36 L31.1028169,4.392 C31.7492958,4.68 31.8211268,5.616 31.2464789,6.048 L11.4211268,19.728 C10.5591549,20.304 9.40985915,20.376 8.47605634,19.8 L0.861971831,14.832 C0.430985915,14.544 0.430985915,13.896 0.861971831,13.536 L19.9690141,0.648 C20.6873239,-2.70894418e-14 21.6929577,-0.072 22.6267606,0.36 Z" id="Shape" fill="#DBF0FF"></path>
                    <polygon id="Shape" fill="#000000" points="19.3943662 1.584 3.80704225 12.168 12.7859155 17.856 29.2352113 6.408"></polygon>
                    <polygon id="Shape" fill="#000000" points="23.5605634 2.736 26.0028169 3.96 26.2901408 3.744 23.8478873 2.52"></polygon>
                </g>
                <ellipse id="Oval" fill="#95CDFF" fill-rule="nonzero" opacity="0.52" transform="translate(203.680137, 205.241184) rotate(-32.030890) translate(-203.680137, -205.241184) " cx="203.680137" cy="205.241184" rx="1.07751273" ry="1"></ellipse>
                <path d="M264.338028,169.2 L264.338028,200.88 C264.338028,200.88 267.211268,200.88 268.647887,200.16 L268.647887,173.52 C268.647887,173.52 268.647887,169.92 264.338028,169.2 Z" id="Shape" fill="#4EAD36" fill-rule="nonzero"></path>
                <path d="M252.84507,173.52 C252.84507,173.52 254.28169,173.52 255,174.96 L255,180.72 C255,180.72 255,181.44 255.71831,182.16 C255.71831,182.16 256.43662,182.88 257.15493,182.88 L259.309859,182.88 L259.309859,185.04 L257.15493,185.04 C257.15493,185.04 255,185.04 254.28169,184.32 C254.28169,184.32 252.84507,183.6 252.84507,182.16 L252.84507,173.52 Z" id="Shape" fill="#4EAD36" fill-rule="nonzero"></path>
                <ellipse id="Oval" fill="#E7F1F7" fill-rule="nonzero" cx="242.070423" cy="367.56" rx="24.4225352" ry="10.44"></ellipse>
                <path d="M275.830986,178.56 C275.830986,178.56 277.267606,178.56 277.985915,180 L277.985915,187.2 C277.985915,187.2 277.985915,190.8 274.394366,191.52 L269.366197,191.52 L269.366197,189.36 L274.394366,189.36 C274.394366,189.36 275.830986,188.64 275.830986,187.2 L275.830986,178.56 Z" id="Shape" fill="#4EAD36" fill-rule="nonzero"></path>
                <g id="Group" transform="translate(217.647887, 315.360000)" fill-rule="nonzero">
                    <g transform="translate(0.000000, 38.160000)">
                        <ellipse id="Oval" fill="#9AB7E0" cx="21.9084507" cy="13.68" rx="21.9084507" ry="10.8"></ellipse>
                        <polygon id="Shape" fill="#9AB7E0" points="0 10.08 0 14.4 3.5915493 17.28 4.30985915 10.8"></polygon>
                        <polygon id="Shape" fill="#9AB7E0" points="43.8169014 14.4 43.8169014 10.08 39.5070423 10.08 40.943662 18.72"></polygon>
                        <ellipse id="Oval" fill="#E7F1F7" cx="21.9084507" cy="10.8" rx="21.9084507" ry="10.8"></ellipse>
                    </g>
                    <path d="M0.718309859,14.4 L0.718309859,48.96 L0.790140845,48.96 C1.43661972,54.36 10.6309859,58.608 21.9084507,58.608 C33.1859155,58.608 42.4521127,54.36 43.0267606,48.96 L43.0985915,48.96 L43.0985915,14.4 L0.718309859,14.4 Z" id="Shape" fill="#E7F1F7"></path>
                    <path d="M42.5957746,10.08 C39.5788732,5.904 31.4619718,2.88 21.9084507,2.88 C12.2112676,2.88 4.02253521,5.976 1.14929577,10.296 L0,10.08 L0,14.4 L0.0718309859,14.472 C0.861971831,20.088 10.343662,24.48 21.9084507,24.48 C33.4732394,24.48 42.8830986,20.088 43.7450704,14.472 L43.8169014,14.4 L43.8169014,10.08 L42.5957746,10.08 Z" id="Shape" fill="#9AB7E0"></path>
                    <ellipse id="Oval" fill="#E7F1F7" cx="21.9084507" cy="10.8" rx="21.9084507" ry="10.8"></ellipse>
                    <ellipse id="Oval" fill="#C3D6ED" cx="21.9084507" cy="10.944" rx="21.1901408" ry="10.224"></ellipse>
                    <path d="M21.6929577,21.168 C31.0309859,21.168 39.0042254,18.216 41.8056338,14.184 C41.4464789,9 32.5394366,4.824 21.6929577,4.824 C10.8464789,4.824 2.01126761,9 1.58028169,14.184 C4.45352113,18.216 12.3549296,21.168 21.6929577,21.168 Z" id="Shape" fill="#879EB2"></path>
                    <path d="M21.6929577,57.888 C31.0309859,57.888 39.0042254,54.936 41.8056338,50.904 C41.4464789,45.72 32.5394366,41.544 21.6929577,41.544 C10.8464789,41.544 2.01126761,45.72 1.58028169,50.904 C4.45352113,54.936 12.3549296,57.888 21.6929577,57.888 Z" id="Shape" fill="#879EB2" opacity="0.19"></path>
                </g>
                <path d="M239.915493,339.84 L239.915493,375.12 C239.915493,375.12 242.932394,375.336 246.811268,374.544 L246.811268,339.264 C246.811268,339.264 243.507042,339.84 239.915493,339.84 Z" id="Shape" fill="#F5FAFC" fill-rule="nonzero"></path>
                <polygon id="Shape" fill="#F5FAFC" fill-rule="nonzero" points="248.678873 338.832 250.905634 338.256 250.905634 373.536 248.678873 374.112"></polygon>
                <polygon id="Shape" fill="#F5FAFC" fill-rule="nonzero" points="257.370423 335.304 258.519718 334.44 258.232394 370.008 257.15493 370.728"></polygon>
                <g id="Group" transform="translate(227.704225, 362.880000)" fill-rule="nonzero">
                    <polygon id="Shape" fill="#F8FCFF" points="3.16056338 7.2 1.58028169 6.408 1.58028169 5.616 2.37042254 4.824 0.790140845 4.824 0 4.032 0.790140845 3.168 0 2.376 0.790140845 1.584 1.58028169 0.792 2.37042254 0 4.02253521 0 4.02253521 0 4.81267606 0 5.6028169 0.792 6.39295775 0 7.18309859 0 7.97323944 0 7.97323944 0.792 8.76338028 0.792 8.76338028 1.584 10.343662 1.584 10.343662 2.376 9.55352113 3.168 9.55352113 4.032 10.343662 4.824 11.2056338 5.616 10.343662 6.408 9.55352113 7.2"></polygon>
                    <polygon id="Shape" fill="#D8E6EF" points="5.6028169 0.792 5.6028169 2.376 4.02253521 1.584 4.81267606 0"></polygon>
                    <polygon id="Shape" fill="#D8E6EF" points="0.790140845 4.824 2.37042254 4.032 4.02253521 4.032 5.6028169 4.824 4.02253521 4.824 2.37042254 5.616 1.58028169 5.616 2.37042254 4.824"></polygon>
                    <polygon id="Shape" fill="#D8E6EF" points="9.55352113 3.168 7.18309859 4.032 9.55352113 4.032"></polygon>
                    <polygon id="Shape" fill="#D8E6EF" points="0.790140845 3.168 2.37042254 2.376 0 2.376"></polygon>
                    <polygon id="Shape" fill="#D8E6EF" points="3.16056338 7.2 5.6028169 6.408 7.97323944 6.408 5.6028169 7.2"></polygon>
                </g>
                <g id="Group" transform="translate(237.042254, 357.840000)" fill-rule="nonzero">
                    <g id="Shape">
                        <polygon fill="#F8FCFF" points="0.287323944 3.672 0 2.376 0.646478873 2.736 0.646478873 2.088 0 1.44 0.933802817 1.44 1.29295775 1.44 2.22676056 1.152 2.58591549 0.504 2.87323944 0.504 3.16056338 1.152 4.16619718 1.152 4.81267606 1.152 5.1 2.088 4.45352113 2.376 5.74647887 3.024 5.45915493 3.384 5.1 3.672 4.81267606 3.672 4.16619718 4.32 2.58591549 4.32 1.29295775 4.32"></polygon>
                        <polygon fill="#D8E6EF" points="0.646478873 2.088 1.58028169 2.376 0.646478873 2.736"></polygon>
                        <polygon fill="#D8E6EF" points="4.45352113 2.376 3.16056338 2.736 2.58591549 2.376 3.16056338 3.024 5.74647887 3.024"></polygon>
                        <polygon fill="#D8E6EF" points="0.287323944 3.672 2.22676056 3.672 1.29295775 4.32"></polygon>
                        <polygon fill="#D8E6EF" points="1.29295775 1.44 2.87323944 1.728 2.22676056 1.152"></polygon>
                        <polygon fill="#D8E6EF" points="4.81267606 3.672 3.80704225 3.672 4.16619718 4.32"></polygon>
                    </g>
                    <polygon id="Shape" fill="#D8E6EF" opacity="0.25" points="2.87323944 0.504 3.16056338 1.152 4.81267606 1.152 5.1 2.088 4.45352113 2.376 5.74647887 3.024 5.1 3.672 4.81267606 3.672 4.16619718 4.32 2.87323944 4.32"></polygon>
                </g>
            </g>
        </g>
    </g>
</svg>